<?xml version="1.0" encoding="UTF-8" standalone="no"?>
<!DOCTYPE svg PUBLIC "-//W3C//DTD SVG 1.1//EN" "http://www.w3.org/Graphics/SVG/1.1/DTD/svg11.dtd">
<svg version="1.1" xmlns="http://www.w3.org/2000/svg" xmlns:xlink="http://www.w3.org/1999/xlink" preserveAspectRatio="xMidYMid meet" viewBox="0 0 32 30" width="32" height="30"><defs><path d="M8.2 2.61L26.14 2.61L26.14 5.43L8.2 5.43L8.2 2.61Z" id="a5QgWswLuf"></path><path d="M8.2 12.05L26.14 12.05L26.14 14.87L8.2 14.87L8.2 12.05Z" id="o3mSTQbiEM"></path><path d="M8.2 20.93L26.14 20.93L26.14 23.75L8.2 23.75L8.2 20.93Z" id="c26Bm4H9DY"></path><path d="M2.13 2.61L5.19 2.61L5.19 5.43L2.13 5.43L2.13 2.61Z" id="d38NKxAbSy"></path><path d="M2.13 12.05L5.19 12.05L5.19 14.87L2.13 14.87L2.13 12.05Z" id="eEuq4AyIZ"></path><path d="M2.13 20.93L5.19 20.93L5.19 23.75L2.13 23.75L2.13 20.93Z" id="b4MV0LVGSP"></path></defs><g><g><g><use xlink:href="#a5QgWswLuf" opacity="1" fill="#000000" fill-opacity="1"></use></g><g><use xlink:href="#o3mSTQbiEM" opacity="1" fill="#000000" fill-opacity="1"></use></g><g><use xlink:href="#c26Bm4H9DY" opacity="1" fill="#000000" fill-opacity="1"></use></g><g><use xlink:href="#d38NKxAbSy" opacity="1" fill="#000000" fill-opacity="1"></use></g><g><use xlink:href="#eEuq4AyIZ" opacity="1" fill="#000000" fill-opacity="1"></use></g><g><use xlink:href="#b4MV0LVGSP" opacity="1" fill="#000000" fill-opacity="1"></use></g></g></g></svg>